<svg width="471" height="484" xmlns="http://www.w3.org/2000/svg" xmlns:xlink="http://www.w3.org/1999/xlink"><defs><path id="a" d="M0 .388h64.765V108.89H0z"/><path id="c" d="M.128.239H88.97V84.8H.128z"/><path id="e" d="M.374.458h60.133v67.984H.374z"/></defs><g fill="none" fill-rule="evenodd"><path d="M190.473 115.607c-11.658-3.881-17.961-16.478-14.08-28.134 3.882-11.658 16.477-17.961 28.135-14.08 11.653 3.88 17.959 16.477 14.078 28.135-3.881 11.655-16.48 17.96-28.133 14.079m16.66-50.037c-15.979-5.32-33.244 3.32-38.563 19.298-5.32 15.978 3.32 33.242 19.298 38.563 15.975 5.318 33.242-3.32 38.563-19.298 5.32-15.977-3.324-33.244-19.299-38.563" fill="#373334"/><path d="M203.812 73.54c.395.134.769.304 1.153.46L208 65.935c-.502-.2-.99-.424-1.51-.6-.394-.134-.79-.218-1.184-.335L203 73.31c.268.08.54.138.812.23M199.401 72l.599-8.794a13.894 13.894 0 0 0-1.92-.206l-.08 8.85c.464.013.932.067 1.401.15M194 72.58L192.717 64c-.917.148-1.822.344-2.717.58l2.015 8.42a21.08 21.08 0 0 1 1.985-.42M188 75.038L184.558 67c-.872.4-1.725.839-2.558 1.32l4.127 7.68c.612-.35 1.235-.672 1.873-.962M183 77.785L178.01 72a27.525 27.525 0 0 0-2.01 1.662L181.53 79c.47-.43.962-.831 1.47-1.215M180 81.439L172.673 77c-.594.684-1.147 1.4-1.673 2.134L178.777 83c.382-.538.786-1.061 1.223-1.561M175.635 86.934c.107-.313.246-.605.365-.91L167.914 83c-.164.426-.358.833-.507 1.268-.163.476-.27.956-.407 1.434L175.33 88c.103-.355.184-.713.305-1.066M176 91.896L167.18 91a30.507 30.507 0 0 0-.18 2.877l8.873.123c.006-.699.053-1.401.127-2.104M175.552 98L167 99.287c.157.916.362 1.82.606 2.713L176 99.984a20.819 20.819 0 0 1-.448-1.984M176.017 103L168 106.452c.406.87.852 1.717 1.338 2.548l7.662-4.141a21.924 21.924 0 0 1-.983-1.859M179.78 108l-5.78 5.008c.53.69 1.08 1.354 1.668 1.992l5.332-5.55a21.071 21.071 0 0 1-1.22-1.45M184.448 112L180 119.35a27.999 27.999 0 0 0 2.13 1.65l3.87-7.796a20.723 20.723 0 0 1-1.552-1.204M190.815 115.312c-.266-.091-.517-.211-.78-.312L187 123.102c.385.147.749.322 1.14.456.516.177 1.038.295 1.555.442l2.305-8.35c-.397-.114-.792-.203-1.185-.338M194.603 116l-.603 8.828c.641.098 1.28.163 1.917.172l.083-8.88a9.945 9.945 0 0 1-1.397-.12M200 115.441l1.296 8.559c.912-.156 1.812-.36 2.704-.601L201.97 115c-.649.176-1.304.328-1.97.441M206 114.964l3.465 8.036a30.86 30.86 0 0 0 2.535-1.322L207.844 114a21.94 21.94 0 0 1-1.844.964M211 113.198l5.013 5.802a29.355 29.355 0 0 0 1.987-1.648L212.447 112c-.463.421-.947.82-1.447 1.198M214 107.538l7.347 4.462a29.565 29.565 0 0 0 1.653-2.115L215.206 106c-.38.528-.776 1.045-1.206 1.538M217.406 101.932c-.118.352-.27.681-.406 1.022l8.082 3.046c.18-.46.39-.903.551-1.38.147-.432.24-.868.367-1.302L217.67 101c-.09.31-.158.623-.264.932M219 97.396l8.799.604c.107-.64.181-1.28.201-1.917L219.149 96c-.014.464-.07.93-.149 1.396M218.414 92L227 90.707a28.967 28.967 0 0 0-.576-2.707L218 90.028c.167.65.307 1.306.414 1.972M215.945 85L224 81.55c-.396-.87-.83-1.72-1.307-2.55L215 83.142c.343.605.66 1.225.945 1.858M213.197 81L219 76.007A28.69 28.69 0 0 0 217.357 74L212 79.533c.421.47.82.962 1.197 1.467M211.543 78L216 70.679A28.05 28.05 0 0 0 213.882 69L210 76.77c.53.385 1.047.792 1.543 1.23M153.472 253.606c-11.658-3.881-17.96-16.476-14.078-28.134 3.881-11.656 16.476-17.96 28.134-14.08 11.657 3.882 17.96 16.479 14.08 28.135-3.882 11.658-16.479 17.96-28.136 14.08m16.66-50.037c-15.978-5.32-33.243 3.321-38.562 19.298-5.32 15.978 3.318 33.243 19.297 38.563 15.976 5.319 33.244-3.321 38.564-19.299 5.32-15.977-3.322-33.243-19.298-38.562" fill="#BAC0B1"/><path d="M166.81 212.539c.398.135.77.305 1.156.461l3.034-8.064c-.504-.2-.993-.426-1.513-.602-.391-.133-.788-.218-1.181-.334L166 212.309c.272.082.542.138.81.23M162.401 212l.599-8.792a13.765 13.765 0 0 0-1.92-.208l-.08 8.848c.465.015.934.07 1.401.152M158 211.581L156.718 203c-.92.148-1.823.346-2.718.58l2.012 8.42c.656-.17 1.318-.31 1.988-.419M151 212.037L147.556 204c-.871.402-1.721.84-2.556 1.321l4.127 7.679c.611-.35 1.233-.673 1.873-.963M146 214.786L141.01 209a28.696 28.696 0 0 0-2.01 1.66l5.53 5.34c.469-.43.96-.833 1.47-1.214M143 219.44l-7.328-4.44a27.9 27.9 0 0 0-1.672 2.135l7.775 3.865c.384-.537.789-1.062 1.225-1.56M138.636 225.933c.106-.312.244-.605.364-.909L130.915 222c-.165.424-.357.833-.505 1.267-.163.475-.274.957-.41 1.435l8.332 2.298c.102-.355.182-.712.304-1.067M139 229.896l-8.823-.896c-.1.962-.166 1.923-.177 2.879l8.871.121c.007-.698.056-1.4.129-2.104M138.551 236L130 237.286c.157.916.364 1.82.606 2.714l8.394-2.018a21.085 21.085 0 0 1-.449-1.982M140.017 242L132 245.452c.405.87.85 1.717 1.337 2.548l7.663-4.14a22.113 22.113 0 0 1-.983-1.86M142.78 246l-5.78 5.01a28.364 28.364 0 0 0 1.665 1.99l5.335-5.55a21.22 21.22 0 0 1-1.22-1.45M148.447 250L144 257.35a27.882 27.882 0 0 0 2.13 1.65l3.87-7.795a20.251 20.251 0 0 1-1.553-1.205M153.814 253.312c-.268-.091-.517-.21-.78-.312L150 261.101c.381.147.745.322 1.137.456.518.176 1.036.294 1.556.443l2.307-8.35c-.396-.11-.794-.204-1.186-.338M158.603 254l-.603 8.83c.64.099 1.28.16 1.917.17l.083-8.878a9.964 9.964 0 0 1-1.397-.122M164 254.442l1.293 8.558c.916-.154 1.815-.36 2.707-.6l-2.029-8.4c-.651.176-1.305.327-1.971.442M169 251.964l3.463 8.036c.869-.4 1.713-.84 2.537-1.32l-4.155-7.68c-.602.35-1.218.67-1.845.964M174 249.2l5.015 5.8a29.521 29.521 0 0 0 1.985-1.649L175.447 248c-.465.422-.947.82-1.447 1.2M177 245.539l7.343 4.461a28.606 28.606 0 0 0 1.657-2.113L178.205 244c-.379.53-.776 1.046-1.205 1.539M180.408 239.93c-.12.353-.271.682-.408 1.022l8.084 3.048c.181-.46.386-.906.547-1.38.147-.433.245-.868.369-1.303L180.673 239c-.092.31-.16.622-.265.93M181 234.395l8.798.605c.107-.64.184-1.281.202-1.917l-8.847-.083c-.016.463-.071.93-.153 1.395M181.414 229l8.586-1.292a30.158 30.158 0 0 0-.578-2.708L181 227.028c.168.65.306 1.307.414 1.972M179.943 224l8.057-3.453a30.772 30.772 0 0 0-1.303-2.547L179 222.14c.347.608.658 1.227.943 1.86M177.195 219l5.805-4.993a29.118 29.118 0 0 0-1.641-2.007L176 217.533c.422.47.817.962 1.195 1.467M173.543 216l4.457-7.32a27.343 27.343 0 0 0-2.117-1.68L172 214.77c.532.386 1.049.793 1.543 1.23" fill="#5E6969"/><path d="M313.014 313.938c-1.236 3.121-4.851 4.805-8.031 3.745l-145.578-48.574c-3.18-1.062-5.066-4.581-4.19-7.823l45.65-169.015c.877-3.241 4.195-5.026 7.374-3.964l165.813 55.324c3.179 1.061 4.766 4.482 3.526 7.602l-64.564 162.705z" fill="#5E6969"/><path d="M287.688 121.043c1.063-3.184-.679-6.658-3.872-7.718l-75.34-25.019c-3.195-1.06-6.527.723-7.408 3.964l-45.853 168.955c-.878 3.24 1.015 6.758 4.208 7.82l65.181 21.644c3.195 1.06 6.676-.677 7.74-3.862l55.344-165.784z" fill="#5E6969"/><path d="M296.177 117.312c-3.182-1.063-6.654.68-7.713 3.87L233.31 287.325c-1.06 3.193.679 6.673 3.86 7.735l67.743 22.623c3.183 1.062 6.802-.624 8.039-3.75l64.625-163c1.24-3.126-.348-6.553-3.53-7.615l-77.871-26.005z" fill="#373334"/><path d="M221.883 127L116.43 149.956l-.156 40.916 70.512-2.348-10.813 74.041L108 306.948 127.588 347l69.866-27.706s8.531-2.848 12.875-2.584c4.206.258 11.697 3.9 11.697 3.9L274 164.317 221.883 127z" fill="#FFFFFE"/><path d="M109.59 151.309a1.452 1.452 0 0 0-1.55-1.304s-71.528 5.961-77.431 9.924c-5.905 3.964-17.887 26.312-12.045 29.395 5.845 3.085 45.864-4.869 45.902-4.024.04.847-17.315 27.738-8.76 32.247 8.553 4.507 28.078-26.086 29.098-26.264 1.025-.179 27.938 4.44 27.938 4.44.768.133 1.326-.401 1.251-1.182l-4.403-43.232z" fill="#FFFFFE"/><path d="M122.092 333s9.67-2.377 16.107-20.201c6.437-17.827-.236-25.799-.236-25.799L106 307.91 122.092 333z" fill="#BAC0B1"/><path d="M202.819 317.43c.576 1.578-.27 3.332-1.879 3.898l-1.406.495c-1.607.564-3.394-.265-3.97-1.845l-18.383-50.408c-.576-1.58.267-3.335 1.875-3.9l1.408-.492c1.608-.566 3.395.262 3.968 1.84l18.387 50.411z" fill="#E36740"/><path d="M101.33 308.47s-26.406 25.475-31.65 23.492c-5.24-1.984-7.666-38.023-30.406-44.185C16.535 281.614 10 293.46 10 293.46L62.754 389 125 350.884l-23.67-42.414z" fill="#FFFFFE"/><path d="M132.468 347.707c1.184 2.183.323 4.917-1.908 6.075l-1.346.7c-2.235 1.155-5.03.312-6.213-1.87l-23.47-43.319c-1.182-2.182-.323-4.918 1.91-6.073l1.346-.7c2.234-1.158 5.03-.314 6.212 1.868l23.469 43.32z" fill="#E36740"/><path d="M220.555 281.86a4.607 4.607 0 0 1-5.81 2.905l-45.606-15.18a4.604 4.604 0 0 1-2.905-5.806l2.21-6.637a4.606 4.606 0 0 1 5.808-2.908l45.605 15.18c2.4.799 3.707 3.412 2.909 5.809l-2.211 6.637z" fill="#1D1D1D"/><path d="M124.984 194.872c.198 2.364-1.498 4.466-3.763 4.675l-4.812.437c-2.267.206-4.286-1.56-4.48-3.925l-3.913-46.931c-.198-2.366 1.498-4.468 3.765-4.677l4.814-.435c2.267-.205 4.28 1.56 4.476 3.925l3.913 46.93z" fill="#E36740"/><path fill="#BAC0B1" d="M108 365.02l-3.593 1.98L82 322.981 85.588 321z"/><g transform="translate(0 291)"><mask id="b" fill="#fff"><use xlink:href="#a"/></mask><path d="M64.234 100.009c1.182 2.228.322 5.02-1.91 6.202l-4.059 2.148c-2.228 1.182-5.023.323-6.205-1.905L.532 9.272C-.651 7.044.208 4.252 2.437 3.071L6.5.918c2.233-1.18 5.028-.32 6.21 1.91l51.525 97.18z" fill="#E36740" mask="url(#b)"/></g><path d="M109.5 362.155c.793 1.495.626 3.15-.38 3.68-1.003.529-2.471-.256-3.262-1.749l-21.36-40.24c-.791-1.495-.62-3.15.38-3.68 1.007-.53 2.474.258 3.265 1.75l21.357 40.24zM231.868 280L226 278.072 235.133 251l5.867 1.929z" fill="#E36740"/><path fill="#BAC0B1" d="M238.08 282l-6.08-2.037L240.92 253l6.08 2.037z"/><path fill="#E36740" d="M243.869 284L238 282.07l9.132-27.07 5.868 1.928zM103.5 364.156c.793 1.495.625 3.149-.38 3.679-1.004.53-2.472-.256-3.264-1.748l-21.36-40.242c-.789-1.493-.618-3.15.381-3.68 1.006-.53 2.473.258 3.265 1.751l21.358 40.24zM45.182 361s13.076-4.986 21.337-14.484c8.26-9.496 9.48-16.52 9.48-16.52s.1-2.303-4.203-4.625c-4.304-2.323-5.722-.991-5.722-.991s2.504 2.509-6.097 14.361C51.38 350.595 40 351.877 40 351.877L45.182 361z"/><path d="M136.774 304.75a1.111 1.111 0 0 1-.722-1.281c.463-2.22.72-4.367.766-6.385a1.099 1.099 0 0 1 1.115-1.084c.603.017 1.08.522 1.067 1.132-.047 2.157-.32 4.443-.811 6.797a1.092 1.092 0 0 1-1.415.82m-4.369 12.502a1.117 1.117 0 0 1-.634-1.547 56.18 56.18 0 0 0 2.296-5.398l.215-.595c.202-.575.908-.853 1.394-.673.568.206.866.84.663 1.416l-.227.632a59.4 59.4 0 0 1-2.387 5.607c-.247.5-.814.729-1.32.558m-7.658 10.693a1.084 1.084 0 0 1-.465-.31 1.121 1.121 0 0 1 .077-1.565c1.465-1.343 2.863-2.96 4.155-4.805a1.075 1.075 0 0 1 1.523-.26c.49.354.606 1.046.257 1.546-1.384 1.975-2.889 3.712-4.47 5.164a1.08 1.08 0 0 1-1.077.23" fill="#FFFFFE"/><path d="M235.037 270.264l-2.66-.9-9.474-3.205c-1.608-.543-3.363.347-3.9 1.983l-4.846 14.789c-.536 1.636.343 3.419 1.951 3.962l9.473 3.205 2.66.9 2.964 1.002.974-2.973 4.847-14.789.974-2.972-2.963-1.002z" fill="#292C2D"/><path d="M264.481 194.35l.469-1.445.468-1.445c.157-.483.313-.966.47-1.445l-.47 1.445c2.188-6.745 6.363-19.728 8.582-26.46l-.005.015L262 202c.707-2.057 1.299-4.155 2.013-6.205l.468-1.445" fill="#74773B"/><path d="M163.97 191.46c.233 1.645-.913 3.184-2.546 3.42l-.627.09c-1.635.235-3.166-.92-3.397-2.563l-7.37-51.868c-.233-1.645.912-3.183 2.546-3.418l.627-.09c1.637-.235 3.165.918 3.399 2.562l7.368 51.868zM175.97 189.461c.234 1.646-.911 3.183-2.546 3.418l-.627.09c-1.635.235-3.163-.918-3.395-2.563l-7.372-51.867c-.231-1.644.913-3.183 2.55-3.417l.624-.092a3.014 3.014 0 0 1 3.398 2.563l7.367 51.868zM173.48 330.16c.814 1.477.655 3.125-.355 3.667-1.012.54-2.503-.226-3.316-1.701l-28.29-51.288c-.813-1.476-.654-3.125.359-3.665 1.01-.54 2.502.225 3.316 1.7l28.286 51.288zM180.502 327.102c.81 1.476.611 3.144-.444 3.708-1.054.567-2.577-.177-3.39-1.651l-28.17-51.261c-.81-1.475-.61-3.143.445-3.708 1.051-.566 2.576.178 3.387 1.653l28.172 51.26zM230.715 193.824c.873 2.355-.326 4.998-2.666 5.877l-.033.012c-2.338.879-4.968-.329-5.84-2.683l-25.892-69.854c-.87-2.354.326-4.999 2.663-5.877l.036-.012c2.337-.878 4.963.329 5.837 2.682l25.895 69.855zM246.715 192.707c.874 2.383-.328 5.061-2.678 5.95l-.14.052c-2.352.89-4.991-.332-5.87-2.716l-26.74-72.7c-.877-2.383.327-5.061 2.678-5.95l.136-.053c2.35-.889 4.991.334 5.868 2.716l26.746 72.7z" fill="#E36740"/><path fill="#FFFFFE" d="M240 201.638L233.57 204 203 123.362l6.428-2.362z"/><path d="M286.099 267.81c-1.059 3.197-4.527 4.942-7.704 3.878l-73.23-24.525c-3.18-1.064-4.913-4.551-3.854-7.749l21.59-65.223c1.06-3.197 4.524-4.943 7.702-3.879l73.231 24.525c3.178 1.064 4.914 4.552 3.855 7.75L286.1 267.81z" fill="#FADCC0"/><path d="M384.541 280.993L409 248.19l-71.132-81.718L274.104 165 222 321.28c1.933.408 8.19 1.837 11.164 3.787 3.657 2.399 8.818 9.803 8.818 9.803L281.6 399l39.846-20.246-28.073-76.324 35.786-65.687 55.382 44.25z" fill="#BAC0B1"/><g transform="translate(382 253)"><mask id="d" fill="#fff"><use xlink:href="#c"/></mask><path d="M29.754.696c.526-.57 1.439-.611 2.025-.102 0 0 54.061 47.244 56.455 53.867 2.394 6.624-1.27 31.293-7.813 30.236-6.545-1.057-34.04-31.114-34.574-30.473-.536.642-2.58 32.072-12.155 30.52-9.574-1.553-7.074-37.18-7.79-37.927-.719-.75-25.15-13.14-25.15-13.14-.698-.353-.829-1.105-.303-1.674L29.754.696z" fill="#BAC0B1" mask="url(#d)"/></g><path d="M294.223 391s-6.42-7.765-1.137-25.764C298.367 347.234 308.458 345 308.458 345L322 380.981 294.223 391z" fill="#5E6969"/><path d="M239.375 328.159c-1.41.929-1.8 2.839-.869 4.244l.814 1.229a3.097 3.097 0 0 0 4.263.863l45.04-29.654a3.061 3.061 0 0 0 .87-4.242l-.817-1.229a3.088 3.088 0 0 0-4.257-.865l-45.044 29.654z" fill="#D2402D"/><path d="M324.172 383s5.867 36.404 11.233 37.971c5.363 1.565 28.79-25.944 50.6-17.187 21.81 8.758 19.956 22.221 19.956 22.221L306.91 471 280 402.825 324.172 383z" fill="#BAC0B1"/><path d="M276.67 396.858c-2.317 1.078-3.32 3.836-2.227 6.126l.66 1.382c1.098 2.288 3.889 3.276 6.207 2.197l46.018-21.421c2.32-1.078 3.322-3.838 2.23-6.125l-.659-1.381c-1.095-2.29-3.892-3.278-6.21-2.199l-46.018 21.421z" fill="#D2402D"/><path d="M247.234 289.778a4.605 4.605 0 0 0 2.909 5.808l45.604 15.18a4.607 4.607 0 0 0 5.808-2.906l2.21-6.637a4.606 4.606 0 0 0-2.905-5.808l-45.604-15.18a4.608 4.608 0 0 0-5.811 2.906l-2.211 6.637z" fill="#020604"/><path d="M375.073 277.696c-1.555 1.727-1.4 4.406.337 5.954l3.688 3.28c1.738 1.547 4.433 1.4 5.985-.331l30.842-34.296a4.214 4.214 0 0 0-.333-5.955l-3.69-3.28c-1.74-1.545-4.431-1.396-5.985.333l-30.844 34.295z" fill="#D2402D"/><path fill="#5E6969" d="M286 424.186l1.773 3.814L332 406.813 330.229 403z"/><path d="M305.66 470.952c-2.31 1.088-3.307 3.873-2.22 6.185l1.985 4.202c1.089 2.31 3.872 3.31 6.183 2.22l100.73-47.51c2.312-1.088 3.31-3.872 2.221-6.182l-1.982-4.208a4.662 4.662 0 0 0-6.185-2.217l-100.731 47.51zM287.993 420.86c-1.496.72-2.335 2.148-1.86 3.175.472 1.023 2.08 1.274 3.577.552l40.298-19.444c1.493-.724 2.331-2.154 1.861-3.177-.475-1.027-2.084-1.274-3.578-.552l-40.298 19.445zM238 282.073l5.867 1.927L253 256.929 247.132 255z" fill="#D2402D"/><path fill="#5E6969" d="M244.804 255L236 281.916l3.196 1.084L248 256.083z"/><path d="M289.993 427.859c-1.496.722-2.335 2.149-1.86 3.176.474 1.024 2.082 1.274 3.577.553l40.298-19.447c1.494-.722 2.333-2.151 1.86-3.176-.473-1.025-2.084-1.274-3.578-.551l-40.297 19.445zM338.957 459s-6.988-11.906-7.814-24.56c-.83-12.657 2.226-19.072 2.226-19.072s1.225-1.922 5.764-1.21c4.54.713 4.852 2.644 4.852 2.644s-3.296.522-3.544 15.286c-.251 14.764 7.559 22.654 7.559 22.654L338.957 459z" fill="#D2402D"/><path d="M299.788 360.716a.846.846 0 0 1-.106-.045c-.49-.251-.704-.894-.475-1.435.894-2.128 1.908-4.073 3.017-5.782.314-.486.925-.6 1.367-.251.439.347.541 1.021.226 1.507-1.036 1.6-1.989 3.429-2.833 5.435-.212.503-.73.743-1.196.57m-3.489 12.344c-.453-.167-.74-.682-.653-1.218.31-1.872.734-3.823 1.262-5.795l.17-.622c.16-.57.71-.887 1.227-.71.571.189.803.782.644 1.351l-.16.587a58.459 58.459 0 0 0-1.215 5.577c-.096.586-.607.975-1.14.868a.795.795 0 0 1-.135-.038m-.162 12.886a1.057 1.057 0 0 1-.653-.818c-.365-2.068-.527-4.317-.474-6.682.012-.595.46-1.069 1.001-1.053.539.013.97.509.955 1.105-.046 2.208.1 4.3.442 6.216.103.585-.244 1.152-.773 1.267a.9.9 0 0 1-.498-.035" fill="#BAC0B1"/><path d="M253.798 277.077l-15-5.077L232 292.753l15 5.077c1.664.562 3.463-.316 3.999-1.953l4.848-14.802c.536-1.637-.386-3.435-2.05-3.998" fill="#181F1B"/><path d="M344.91 252.211a3.13 3.13 0 0 0 .003 4.416l.466.464a3.134 3.134 0 0 0 4.417-.003l38.295-38.3a3.13 3.13 0 0 0-.001-4.413l-.469-.465a3.135 3.135 0 0 0-4.417.001l-38.294 38.3zM334.91 243.212a3.128 3.128 0 0 0 .003 4.414l.465.465a3.135 3.135 0 0 0 4.418-.003l38.295-38.299a3.13 3.13 0 0 0-.004-4.415l-.465-.465a3.132 3.132 0 0 0-4.416.003l-38.297 38.3zM255.017 357.853c-1.504.704-2.355 2.123-1.89 3.156.466 1.034 2.078 1.303 3.582.598l52.275-24.46c1.504-.703 2.354-2.123 1.888-3.157-.465-1.03-2.078-1.302-3.58-.598l-52.275 24.46zM252.987 350.712c-1.503.7-2.336 2.152-1.847 3.227.487 1.078 2.117 1.386 3.618.686l52.255-24.337c1.504-.7 2.335-2.152 1.847-3.229-.485-1.075-2.115-1.384-3.619-.683l-52.254 24.336zM291.098 215.638c-2.116 1.346-2.737 4.159-1.375 6.256l.017.029c1.36 2.095 4.207 2.709 6.322 1.363l62.839-39.925c2.117-1.347 2.737-4.16 1.378-6.254l-.018-.03c-1.36-2.095-4.205-2.708-6.324-1.364l-62.839 39.925z" fill="#D2402D"/><path d="M321 149.393s-18.363 8.743-42.075.777c-23.712-7.965-34.623-25.17-34.623-25.17L242 131.974 274.784 160l42.945-.477 3.271-10.13z" fill="#BAC0B1"/><path d="M275 160l42.726-.447L321 150s-18.379 8.245-42.114.733l-.576-.184c-1.125 3.15-2.218 6.299-3.31 9.451" fill="#5E6969"/><path d="M280.103 203.41c-2.12 1.368-2.744 4.225-1.38 6.354l.082.127a4.593 4.593 0 0 0 6.338 1.384l64.753-41.686c2.123-1.367 2.744-4.226 1.38-6.356l-.077-.123a4.598 4.598 0 0 0-6.34-1.386l-64.756 41.686z" fill="#D2402D"/><path fill="#BAC0B1" d="M279 214.336l3.648 5.664L355 173.663 351.355 168z"/><path d="M321 152.772s-20.033 7.127-44.299-.72C252.435 144.204 239.087 125 239.087 125L235 132.208 272.934 162l47.667-.014.399-9.214z" fill="#FFFFFE"/><path d="M274 162.175l49.573.825L325 151s-23.703 8.943-47.79 1.05L274 162.175z" fill="#C1C2BF"/><path d="M304.787 195.213l-26.433-8.709-4.789-1.577-5.847-1.927-1.947 5.786-21.838 64.904-1.933 5.747 5.452 1.796c.13.052.247.125.382.17l31.222 10.286c3.215 1.06 6.72-.678 7.792-3.86l21.838-64.904c1.07-3.182-.684-6.652-3.9-7.712" fill="#C8B5AA"/><path d="M294.254 216.079c-2.529 7.595-10.736 11.704-18.333 9.175-7.596-2.53-11.704-10.739-9.175-18.335 2.53-7.595 10.738-11.702 18.332-9.173 7.597 2.53 11.705 10.737 9.176 18.333" fill="#5E6969"/><path d="M277.331 246.106c-2.268 6.81-9.626 10.493-16.438 8.225-6.81-2.268-10.491-9.627-8.224-16.436 2.268-6.81 9.625-10.494 16.436-8.226 6.812 2.267 10.493 9.627 8.226 16.437" fill="#292C2D"/><path d="M290.434 214.473c-1.92 5.764-8.146 8.88-13.91 6.96-5.76-1.918-8.877-8.145-6.958-13.908 1.918-5.761 8.146-8.877 13.906-6.96 5.764 1.92 8.88 8.147 6.962 13.908" fill="#D2402D"/><path d="M255.563 203.184a8.496 8.496 0 0 1-10.746 5.378 8.498 8.498 0 1 1 10.746-5.378" fill="#BAC0B1"/><path d="M289.511 214.5c-1.657 4.978-7.036 7.668-12.012 6.01a9.496 9.496 0 0 1-6.01-12.01c1.657-4.978 7.036-7.668 12.01-6.011 4.977 1.657 7.67 7.034 6.012 12.011" fill="#E36740"/><path d="M254.64 203.21a6.998 6.998 0 1 1-13.28-4.422 6.997 6.997 0 0 1 8.85-4.427 6.998 6.998 0 0 1 4.43 8.849" fill="#2F7966"/><path d="M252.717 201.236a5.499 5.499 0 1 1-10.435-3.473 5.499 5.499 0 0 1 10.435 3.473" fill="#4DB16A"/><path d="M237.64 197.212a6.996 6.996 0 0 1-8.849 4.428 7 7 0 0 1-4.431-8.85 6.999 6.999 0 0 1 13.28 4.422" fill="#BAC0B1"/><path d="M235.768 195.922a4.5 4.5 0 0 1-8.537-2.843 4.5 4.5 0 0 1 8.537 2.843" fill="#D7363F"/><path d="M236.768 195.923a4.5 4.5 0 1 1-2.845-5.691 4.5 4.5 0 0 1 2.845 5.691" fill="#DB4A54"/><path d="M244.97 214.765l-2.038-.687a1.505 1.505 0 0 0-1.902.963l-9.953 30.27a1.53 1.53 0 0 0 .952 1.924l2.037.687a1.504 1.504 0 0 0 1.903-.962l9.954-30.27a1.531 1.531 0 0 0-.953-1.925" fill="#D2402D"/><path d="M236.159 246.93a.777.777 0 0 1-.981.488l-2.1-.696a.77.77 0 0 1-.487-.976l10.253-30.676a.772.772 0 0 1 .977-.488l2.099.696a.773.773 0 0 1 .492.976L236.16 246.93zm10.25-33.115l-2.099-.696a2.328 2.328 0 0 0-2.938 1.463l-10.253 30.676a2.315 2.315 0 0 0 1.471 2.927l2.099.696a2.327 2.327 0 0 0 2.94-1.464l10.252-30.676a2.316 2.316 0 0 0-1.472-2.926z" fill="#BAC0B1"/><path d="M234.972 211.765l-2.039-.687a1.505 1.505 0 0 0-1.901.963l-9.956 30.27c-.26.794.168 1.66.953 1.924l2.037.687a1.504 1.504 0 0 0 1.902-.962l9.955-30.27a1.532 1.532 0 0 0-.951-1.925" fill="#D2402D"/><path d="M225.16 243.93a.776.776 0 0 1-.98.487l-2.1-.696a.773.773 0 0 1-.491-.976l10.252-30.676a.778.778 0 0 1 .982-.487l2.099.696a.773.773 0 0 1 .491.976L225.16 243.93zm10.25-33.115l-2.099-.696a2.329 2.329 0 0 0-2.94 1.464l-10.252 30.674a2.315 2.315 0 0 0 1.472 2.928l2.099.696a2.326 2.326 0 0 0 2.938-1.465l10.253-30.675a2.315 2.315 0 0 0-1.47-2.926z" fill="#BAC0B1"/><path d="M224.972 208.765l-2.038-.687a1.504 1.504 0 0 0-1.902.963l-9.955 30.27a1.53 1.53 0 0 0 .951 1.924l2.038.687c.784.265 1.64-.169 1.902-.962l9.955-30.27a1.531 1.531 0 0 0-.951-1.925" fill="#D2402D"/><path d="M215.16 240.93a.777.777 0 0 1-.98.487l-2.1-.695a.774.774 0 0 1-.492-.977l10.252-30.676a.777.777 0 0 1 .98-.487l2.1.696a.774.774 0 0 1 .492.976L215.16 240.93zm10.249-33.115l-2.1-.696a2.328 2.328 0 0 0-2.938 1.463l-10.252 30.675a2.315 2.315 0 0 0 1.472 2.928l2.099.696a2.328 2.328 0 0 0 2.94-1.464l10.25-30.675a2.315 2.315 0 0 0-1.471-2.927z" fill="#BAC0B1"/><path d="M266.974 232.192l-.01.05c-4.847-1.105-9.827 1.66-11.43 6.52-1.707 5.18.784 10.928 5.908 12.651.282.095 1.078.324 1.078.324s98.129 17.027 88.881 45.08c-5.801 17.6-33.206 5.394-33.206 5.394l-5.075 12.896s42.581 19.826 53.486-13.252c15.25-46.26-99.632-69.663-99.632-69.663" fill="#5E6969"/><path d="M272.91 233s2.547 3.005.496 9.701c-2.05 6.697-6.406 9.596-6.406 9.596l3.252.703s3.73-1.996 5.899-9.077c2.113-6.9-.384-10.168-.384-10.168l-2.858-.755zM281.924 235s2.539 3.145.543 9.741c-1.996 6.597-6.467 9.444-6.467 9.444l3.302.815s3.82-2.047 5.93-9.021c2.055-6.795-.664-10.181-.664-10.181l-2.644-.798zM291.762 239s2.616 2.884.594 9.235c-2.023 6.35-6.356 8.857-6.356 8.857l3.246.908s3.775-1.859 5.913-8.574c2.083-6.54-.359-9.427-.359-9.427l-3.038-.999zM300.908 241s2.477 3.055.534 9.503c-1.942 6.446-5.442 8.503-5.442 8.503l3.07.994s3.007-1.472 5.062-8.289c2.001-6.641-.084-9.556-.084-9.556l-3.14-1.155zM309.916 245s2.372 2.488.332 8.37c-2.04 5.883-5.248 7.67-5.248 7.67l3.255.96s2.66-1.306 4.816-7.526c2.102-6.06-.02-8.373-.02-8.373L309.915 245zM317.159 248c.946 1.005 1.377 3.99-.035 8.117-2.076 6.055-5.124 7.825-5.124 7.825l3.095 1.058s2.709-1.343 4.903-7.748c2.138-6.238.19-8.042.19-8.042l-3.03-1.21zM326.145 251c.944 1.026 1.662 4.09.255 8.304-2.065 6.18-5.4 7.462-5.4 7.462l3.076 1.234s2.865-1.255 5.048-7.792c2.128-6.37-.29-7.942-.29-7.942l-2.69-1.266zM334.934 255c.909 1.012.845 3.214-.514 7.365-1.993 6.091-5.42 7.191-5.42 7.191l2.968 1.444s2.956-.808 5.064-7.25c1.802-5.504.536-7.36.536-7.36l-2.634-1.39zM342.639 260c.973 1.068.885 3.528-.564 7.901-2.127 6.422-5.075 7.377-5.075 7.377l2.755 1.722s2.855-.85 5.102-7.638c1.922-5.802.839-7.393.839-7.393L342.639 260zM353.28 266c.651 1.252.285 3.08-2.03 6.923-3.397 5.637-6.25 5.804-6.25 5.804l2.443 2.273s2.44-.059 6.03-6.02c3.071-5.093 2.482-6.57 2.482-6.57L353.28 266zM360.84 273c.447 1.435-.543 3.05-3.802 6.53-4.786 5.104-8.038 4.461-8.038 4.461l1.653 2.993s3.297.547 8.356-4.851c4.325-4.61 3.985-6.236 3.985-6.236L360.84 273zM367.33 287c-.288 1.413-1.55 3.799-6.47 5.777-7.22 2.903-8.422.11-8.422.11l-.438 2.649s1.971 3.204 9.602.133c6.523-2.62 6.398-5.529 6.398-5.529l-.67-3.14zM364 304.905c-1.186.89-2.249 1.036-7.438-.634-7.614-2.448-7.604-5.271-7.604-5.271L347 301.457s.12 2.719 8.169 5.305c6.88 2.215 7.368.782 7.368.782l1.463-2.639zM354 316.494c-1.451.06-2.794-.842-5.884-5.434-4.54-6.745-3.15-8.06-3.15-8.06l-2.843 1.185s-1.102.707 3.284 8.132c3.663 6.2 5.583 5.672 5.583 5.672l3.01-1.495zM344 320.699c-1.513-.371-2.133-.99-4.02-6.223-2.77-7.682-1.409-8.476-1.409-8.476l-3.232.135s-1.297-.113 1.18 8.147c2.125 7.08 3.76 6.715 3.76 6.715l3.721-.298zM333 319c-1.362-.82-2.75-.58-2.775-6.036-.043-8.004 2.648-8.393 2.648-8.393L329.16 304s-2.104 1.194-2.158 6.87c-.072 7.231 1.902 7.513 1.902 7.513L333 319zM321.54 317c-.994-1.107-1.621-1.477-.392-6.383 1.666-6.668 3.852-7.465 3.852-7.465L321.749 302s-1.316.536-3.103 7.017c-1.61 5.83.295 7.066.295 7.066l2.6.917z" fill="#292C2D"/><path d="M337.449 150.507c-1.244-.634-16.935 8.418-31.675 10.367-5.99.79-18.545-.202-29.787-3.954-11.761-3.923-22.186-10.73-26.714-15.22-10.652-10.567-17.886-27.398-19.255-27.65-2.634-.488-11.638 2.55-8.276 12.667 3.06 9.206 20.604 38.112 48.562 47.6 27.957 9.488 58.472-1.535 66.319-8.613 7.85-7.08 3.219-13.978.826-15.197" fill="#E36740"/><path d="M338.397 150.032c-1.251-.638-16.991 8.378-31.796 10.287-6.195.8-18.317-.125-29.942-4.05L271 173.661c31.969 10.892 59.797-1.506 67.63-6.954 8.665-6.025 2.177-15.448-.233-16.676" fill="#D2402D"/><path d="M245.934 62.668c-5.2 16.127-15.208 27.334-22.352 25.032-7.142-2.301-8.717-17.24-3.515-33.367 5.2-16.128 15.207-27.336 22.35-25.033 7.143 2.301 8.718 17.24 3.517 33.368M334.175 140.87c-4.895 15.182-30.207 20.608-56.537 12.12-26.33-8.489-43.707-27.677-38.813-42.86 4.894-15.181 30.207-20.608 56.536-12.12 26.33 8.488 43.708 27.677 38.814 42.86" fill="#E36740"/><path d="M380.934 105.668c-5.201 16.127-15.208 27.334-22.352 25.032-7.143-2.301-8.717-17.24-3.515-33.368 5.2-16.127 15.207-27.334 22.35-25.032 7.143 2.301 8.718 17.24 3.517 33.368" fill="#D2402D"/><path d="M371.642 99.66c-12.051 37.733-53 58.175-91.463 45.66-38.462-12.515-59.872-53.248-47.821-90.98 12.05-37.733 53-58.176 91.462-45.66 38.462 12.515 59.873 53.248 47.822 90.98" fill="#FFFFFE"/><g transform="translate(292)"><mask id="f" fill="#fff"><use xlink:href="#e"/></mask><path d="M25.6 68.442l34.907-48.429C52.603 13.16 43.171 7.721 32.494 4.303A80.164 80.164 0 0 0 .517.805l-.143 59.56L25.6 68.441z" fill="#E36740" mask="url(#f)"/></g><path d="M354.585 104.756c-9.078 28.157-41.1 43.032-71.522 33.226-30.422-9.807-47.726-40.582-38.648-68.738 9.078-28.157 41.1-43.032 71.522-33.225 30.422 9.805 47.725 40.58 38.648 68.737" fill="#1D1D1D"/><path d="M295.697 99L278 153.14c26.192 8.23 51.306 2.874 56.176-12.024 4.87-14.898-12.344-33.71-38.479-42.116" fill="#D2402D"/><path d="M324.313 10L280 145.443c38.975 12.215 80.383-8.036 92.59-45.35 12.208-37.312-9.4-77.579-48.277-90.093" fill="#BAC0B1"/><path d="M324.409 5L305 65.056 317.265 69 352 20.603C344.205 13.815 334.915 8.422 324.409 5" fill="#D2402D"/><path d="M316.025 35L283 137.07c30.481 9.632 62.482-5.25 71.574-33.35 9.092-28.102-8.16-58.802-38.549-68.72" fill="#020604"/><path d="M348.894 107.617c-8.18 25.45-37.822 38.642-66.206 29.465-28.384-9.177-44.763-37.248-36.582-62.699 8.18-25.45 37.821-38.642 66.206-29.465 28.384 9.177 44.763 37.248 36.582 62.699" fill="#33888D"/><path d="M281.497 137.512c.168.058.336.102.503.157l-1-.339c.167.058.33.124.497.182" fill="#2B4F6D"/><path d="M344.336 71L251 112.769c6.553 11.296 17.603 20.576 31.61 25.21l.59.191c28.205 9.011 57.574-4.203 65.701-29.627 4.077-12.756 2.034-26.169-4.565-37.543" fill="#2B4F6D"/></g></svg>